<?xml version="1.0" encoding="UTF-8"?>
<svg id="_Слой_2" data-name="Слой 2" xmlns="http://www.w3.org/2000/svg" viewBox="0 0 40.27 19.61">
  <defs>
    <style>
      .cls-1 {
        fill: #706f6f;
        stroke-width: 0px;
      }
    </style>
  </defs>
  <g id="_Слой_1-2" data-name="Слой 1">
    <g>
      <path class="cls-1" d="m40.24,11.53c.12,1.69-.11,3.29-1.04,4.73-1.37,2.12-3.33,3.29-5.86,3.32-3.75.04-7.5.06-11.25,0-2.99-.05-5.11-1.55-6.36-4.25-.24-.51-.34-1.08-.48-1.63-.04-.13-.08-.22-.21-.27-1.14-.48-2.28-.97-3.42-1.47-.13-.05-.21-.03-.31.05-.87.68-1.82.81-2.82.34-2.33-1.1-4.64-2.21-6.96-3.33C.46,8.51-.14,7.39.03,6.28c.19-1.22,1.07-2.11,2.26-2.27.52-.07,1.02,0,1.5.23,2.31,1.11,4.63,2.21,6.94,3.32.94.45,1.45,1.21,1.54,2.26,0,.07.07.16.13.19,1.13.49,2.27.98,3.4,1.46.08.04.18.04.28.04,5.95,0,11.9,0,17.85,0,2.03,0,4.07,0,6.1,0,.07,0,.14,0,.21.01ZM2.7,6.08c-.32,0-.55.18-.61.44-.06.25.07.5.34.63.56.27,1.12.53,1.68.8,1.73.83,3.45,1.65,5.18,2.47.14.06.31.1.46.08.24-.03.39-.24.42-.47.03-.25-.1-.46-.37-.59-2.29-1.09-4.57-2.19-6.86-3.28-.09-.04-.19-.06-.24-.08Z"/>
      <path class="cls-1" d="m28.84,0c-.02.05-.03.08-.04.09-.66.84-.72,1.78-.42,2.76.19.6.44,1.19.67,1.78.26.68.51,1.36.48,2.1-.02.57-.21,1.09-.57,1.54-.05.06-.14.12-.21.12-.56.01-1.11,0-1.67,0-.03,0-.05-.01-.1-.03.06-.09.11-.17.16-.25.5-.73.58-1.54.34-2.37-.18-.62-.43-1.23-.66-1.83-.24-.64-.5-1.28-.54-1.98-.04-.67.15-1.27.55-1.81.05-.06.13-.14.2-.14.59-.01,1.18,0,1.8,0Z"/>
      <path class="cls-1" d="m24.13,0c-.18.42-.38.81-.5,1.22-.14.5-.09,1.02.08,1.51.26.75.55,1.49.83,2.24.2.54.36,1.08.35,1.66,0,.61-.2,1.16-.57,1.64-.04.06-.13.11-.19.12-.58,0-1.17,0-1.77,0,.02-.06.02-.09.04-.12.63-.82.72-1.73.42-2.68-.23-.73-.53-1.44-.8-2.16-.2-.54-.36-1.08-.37-1.66,0-.62.19-1.18.57-1.67.04-.05.11-.12.17-.12.6,0,1.19,0,1.75,0Z"/>
      <path class="cls-1" d="m31.61,8.41c.04-.07.05-.1.06-.12.61-.8.71-1.69.43-2.62-.2-.65-.46-1.29-.71-1.93-.23-.61-.45-1.22-.47-1.88-.02-.65.18-1.22.57-1.73.04-.05.11-.12.17-.12.6,0,1.19,0,1.82,0-.04.07-.06.11-.08.15-.65.87-.67,1.82-.35,2.79.24.73.55,1.44.82,2.17.22.61.38,1.24.28,1.91-.07.47-.27.89-.55,1.27-.04.05-.1.1-.15.1-.6,0-1.19,0-1.83,0Z"/>
    </g>
  </g>
</svg>