<?xml version="1.0" encoding="UTF-8"?>
<svg id="_Слой_2" data-name="Слой 2" xmlns="http://www.w3.org/2000/svg" viewBox="0 0 31.79 29.01">
  <defs>
    <style>
      .cls-1 {
        fill: #706f6f;
        stroke-width: 0px;
      }
    </style>
  </defs>
  <g id="_Слой_1-2" data-name="Слой 1">
    <g>
      <path class="cls-1" d="m15.95,29c-3.72,0-7.44,0-11.15,0-.58,0-1.04-.19-1.33-.71-.16-.28-.19-.58-.09-.89.56-1.72,1.13-3.43,1.7-5.15.07-.21.13-.43.25-.62.26-.4.64-.57,1.12-.57,3.25,0,6.51,0,9.76,0,3.07,0,6.13,0,9.2,0,.72,0,1.14.28,1.37.97.55,1.65,1.09,3.3,1.63,4.95.03.08.05.16.08.25.33.92-.25,1.75-1.24,1.75-1.69,0-3.38,0-5.07,0-2.07,0-4.14,0-6.21,0Zm0-6.59c-1.33-.03-2.63,1.09-2.62,2.67,0,1.42,1.2,2.58,2.67,2.57,1.42,0,2.6-1.19,2.6-2.62,0-1.44-1.19-2.63-2.65-2.62Z"/>
      <path class="cls-1" d="m15.93,19.9c-2.64,0-5.27,0-7.91,0-1.16,0-2.2-.33-3.04-1.16-.65-.64-1.02-1.41-1.14-2.31-.19-1.4-.38-2.8-.57-4.21-.12-.88-.24-1.77-.34-2.65-.03-.25-.1-.37-.39-.35-.41.03-.82,0-1.24,0-.7,0-1.27-.55-1.31-1.26-.04-.67.49-1.34,1.17-1.37.74-.03,1.5-.03,2.23.05,1,.11,2,1.21,2.12,2.22.15,1.26.33,2.52.49,3.77.14,1.09.28,2.18.41,3.27.09.79.69,1.34,1.49,1.34,5.34,0,10.68,0,16.02,0,.67,0,1.45-.51,1.54-1.33.15-1.41.35-2.81.53-4.21.12-.97.24-1.94.38-2.91.17-1.17,1.32-2.18,2.5-2.22.53-.02,1.06-.01,1.6,0,.73.02,1.32.63,1.3,1.33-.02.74-.6,1.3-1.35,1.3-.4,0-.81,0-1.21,0-.18,0-.24.07-.26.24-.25,1.92-.51,3.84-.77,5.76-.09.67-.13,1.36-.35,1.99-.53,1.53-1.64,2.46-3.25,2.62-1.23.12-2.49.06-3.73.07-1.65,0-3.3,0-4.95,0Z"/>
      <path class="cls-1" d="m27.71,6.58H4.18s-.02-.05-.03-.08C6.95,3.8,10.22,2,14.16,1.43c-.09-.27-.17-.5-.26-.73-.14-.37.07-.69.46-.7,1.1,0,2.2,0,3.3,0,.33,0,.49.24.39.56-.05.14-.1.27-.15.41-.05.14-.1.27-.16.46,3.93.56,7.2,2.37,10.01,5.07l-.04.08Z"/>
      <path class="cls-1" d="m12.47,11.25c1.58-2.71,5.36-2.69,6.91-.04.34-.18.66-.39,1.01-.52,1.56-.58,3.38.64,3.45,2.3,0,.14-.04.2-.19.2-.32,0-.64.01-.95,0-.07,0-.17-.1-.19-.17-.1-.38-.28-.69-.62-.92-.74-.49-1.78-.08-1.95.8-.05.24-.15.31-.37.29-.24-.02-.48-.02-.72,0-.2.01-.28-.05-.3-.26-.12-1.1-.69-1.86-1.74-2.24-1.52-.55-3.17.41-3.45,1.99-.03.15-.05.3-.09.5-.39,0-.79,0-1.18,0-.05,0-.12-.11-.13-.18-.14-.63-.71-1.13-1.29-1.13-.6,0-1.18.51-1.28,1.13-.03.16-.1.2-.24.19-.29,0-.58-.01-.88,0-.2,0-.25-.07-.23-.26.13-1.39,1.39-2.46,2.78-2.38.63.04,1.16.29,1.64.7Z"/>
      <path class="cls-1" d="m15.3,26.53c-.24-.25-.5-.51-.76-.79-.04-.04-.06-.18-.03-.21.66-.67,1.32-1.34,1.99-2,.32.33.61.63.9.94-.67.66-1.37,1.34-2.11,2.06Z"/>
    </g>
  </g>
</svg>