<?xml version="1.0" encoding="UTF-8"?>
<svg id="_Слой_2" data-name="Слой 2" xmlns="http://www.w3.org/2000/svg" viewBox="0 0 34.57 33.84">
  <defs>
    <style>
      .cls-1 {
        stroke-width: 0px;
      }
    </style>
  </defs>
  <g id="_Слой_1-2" data-name="Слой 1">
    <g>
      <path class="cls-1" d="m2.96,33.06v.77h-1.48v-.77c-.28,0-.54,0-.81,0-.35,0-.68-.31-.68-.66C0,31.36,0,30.31,0,29.27c0-.2.13-.34.23-.49.43-.63.87-1.26,1.3-1.88.38-.55.77-1.1,1.15-1.65.38-.55.77-1.1,1.15-1.65.38-.55.77-1.1,1.16-1.65.17-.24.35-.49.55-.7.09-.09.25-.15.39-.16.32-.02.63,0,.95,0,.65,0,1.29.02,1.94.02.62,0,1.23-.02,1.85-.02.61,0,1.23.01,1.84.01.65,0,1.31,0,1.96-.01.18,0,.35,0,.55,0V7.5c-.07,0-.13,0-.19,0-1.17,0-2.34,0-3.51,0-.34,0-.61-.14-.74-.47-.05-.12-.07-.25-.07-.38,0-1.95,0-3.9,0-5.85C10.51.32,10.81,0,11.31,0c3.97,0,7.93,0,11.9,0,.23,0,.43.05.6.23.14.15.2.31.2.5,0,1.64,0,3.27,0,4.91,0,.41,0,.83,0,1.24,0,.21-.27.53-.5.57-.13.03-.26.04-.39.04-1.12,0-2.23,0-3.35,0-.08,0-.15,0-.24,0v13.57c.14,0,.28.02.43.02.73,0,1.46,0,2.19,0,.16,0,.33-.01.49-.01.75,0,1.49.01,2.24.01.82,0,1.64,0,2.46,0,.42,0,.84-.02,1.26,0,.2,0,.39.09.52.27.42.59.84,1.18,1.25,1.78.35.51.7,1.02,1.06,1.52.42.59.84,1.18,1.25,1.78.25.35.48.71.73,1.06.33.47.67.93.99,1.41.09.14.16.33.16.5.01.96,0,1.92,0,2.88,0,.48-.35.83-.8.79-.23-.02-.47,0-.73,0v.77h-1.44c0-.19,0-.37,0-.55,0-.21,0-.22-.21-.22-3.04,0-6.09,0-9.13,0-3.41,0-6.81,0-10.22,0-2.95,0-5.89,0-8.84,0h-.24Zm-.81-4.5s.05.05.08.05c10.05,0,20.1,0,30.18,0-.1-.16-.17-.29-.25-.41-.41-.58-.83-1.16-1.24-1.75-.36-.51-.71-1.04-1.07-1.55-.5-.73-1.01-1.45-1.52-2.17-.06-.09-.12-.18-.28-.18-1.7,0-3.41,0-5.11,0-4.29,0-8.57,0-12.86,0-1.19,0-2.38,0-3.58,0-.07,0-.16.02-.2.07-.15.18-.28.37-.41.56-.38.55-.76,1.09-1.15,1.64-.51.73-1.02,1.46-1.53,2.2-.36.51-.71,1.02-1.07,1.54Zm30.93,1.5H1.49v1.56c.11,0,.2,0,.29,0,4.51,0,9.01,0,13.52,0,5.38,0,10.77,0,16.15,0,.48,0,.97,0,1.45,0,.09,0,.18,0,.18-.12,0-.48,0-.95,0-1.45ZM22.57,6.01V1.5h-10.59v4.52h10.59Zm-4.54,15.07V7.5h-1.5v13.58h1.5Z"/>
      <path class="cls-1" d="m20.32,5.23v-1.46h1.43v1.46h-1.43Z"/>
    </g>
  </g>
</svg>